# xmcd CD database file
#
# Track frame offsets:
#	150
#	16134
#	29324
#	37556
#	52713
#	64366
#	65449
#	73698
#	86276
#	100495
#	118122
#	130577
#
# Disc length: 2117 seconds
#
# Revision: 0
# Processed by: cddbd v1.5.1PL2 Copyright (c) Steve Scherf et al.
# Submitted via: CDex 1.50
#
DISCID=9208430c
DTITLE=Girl From Saskatoon - This is only the beginning
DYEAR=2006
DGENRE=Country
TTITLE0=James Dean
TTITLE1=Picks Me up
TTITLE2=Keen On Geography
TTITLE3=As Time Goes By
TTITLE4=Can I Please Ride
TTITLE5=String, String Twisted
TTITLE6=Sober and Hungover
TTITLE7=Jet Set
TTITLE8=Shiver In The Night
TTITLE9=I Wipe The Blood Of My Guitar
TTITLE10=Had To Tell You
TTITLE11=Nothing Will Ever Be Alright
EXTD=YEAR: 2006
EXTT0=
EXTT1=
EXTT2=
EXTT3=
EXTT4=
EXTT5=
EXTT6=
EXTT7=
EXTT8=
EXTT9=
EXTT10=
EXTT11=
PLAYORDER=
